<svg width="256" height="256" viewBox="0 0 256 256" xmlns="http://www.w3.org/2000/svg" role="img" aria-label="Environment &amp; safety illustration">
  <defs>
    <linearGradient id="g6" x1="0" y1="0" x2="1" y2="1">
      <stop offset="0%" stop-color="#D9F99D"></stop>
      <stop offset="100%" stop-color="#A7F3D0"></stop>
    </linearGradient>
    <filter id="s6" x="-20%" y="-20%" width="140%" height="140%">
      <feDropShadow dx="0" dy="2" stdDeviation="4" flood-opacity=".15"></feDropShadow>
    </filter>
  </defs>
  <rect rx="24" ry="24" width="256" height="256" fill="url(#g6)"></rect>
  <!-- shield with leaf -->
  <g transform="translate(64,40)" filter="url(#s6)">
    <path d="M64 0l64 20v48c0 36-24 68-64 84C24 136 0 104 0 68V20L64 0Z" fill="#fff" stroke="#166534" stroke-width="4"></path>
    <path d="M40 88c8-16 24-28 48-30-12 10-18 22-18 34 0 12 4 22 10 30-22-2-36-12-40-34Z" fill="#22C55E" stroke="#166534" stroke-width="3"></path>
  </g>
</svg>
