<svg width="256" height="256" viewBox="0 0 256 256" xmlns="http://www.w3.org/2000/svg" role="img" aria-label="Health illustration">
  <defs>
    <linearGradient id="g3" x1="0" y1="0" x2="1" y2="1">
      <stop offset="0%" stop-color="#C8F7DC"></stop>
      <stop offset="100%" stop-color="#B2EBF2"></stop>
    </linearGradient>
    <filter id="s3" x="-20%" y="-20%" width="140%" height="140%">
      <feDropShadow dx="0" dy="2" stdDeviation="4" flood-opacity=".15"></feDropShadow>
    </filter>
  </defs>
  <rect rx="24" ry="24" width="256" height="256" fill="url(#g3)"></rect>
  <!-- heart + pulse -->
  <g transform="translate(40,54)" filter="url(#s3)">
    <path d="M88 122s-64-38-64-78c0-20 14-34 32-34 16 0 26 10 32 20 6-10 16-20 32-20 18 0 32 14 32 34 0 40-64 78-64 78Z" fill="#fff" stroke="#0F766E" stroke-width="4"></path>
    <path d="M16 76h36l10-20 14 36 12-24h48" stroke="#0F766E" stroke-width="4" fill="none" stroke-linecap="round" stroke-linejoin="round"></path>
  </g>
</svg>
